<?xml version="1.0" encoding="UTF-8" standalone="no"?>
<!DOCTYPE svg PUBLIC "-//W3C//DTD SVG 1.1//EN" "http://www.w3.org/Graphics/SVG/1.1/DTD/svg11.dtd">
<svg width="100%" height="100%" viewBox="0 0 1102 282" version="1.1" xmlns="http://www.w3.org/2000/svg" xmlns:xlink="http://www.w3.org/1999/xlink" xml:space="preserve" style="fill-rule:evenodd;clip-rule:evenodd;stroke-linejoin:round;stroke-miterlimit:1.41421;">
    <g id="Artboard1" transform="matrix(1.06349,0,0,0.999618,-456.415,-1532.22)">
        <rect x="429.166" y="1532.8" width="1035.66" height="281.35" style="fill:none;"/>
        <g id="Layer1" transform="matrix(0.940298,0,0,1.00038,41.6386,-0.585949)">
            <g transform="matrix(1,0,0,1,-1.80082,268.612)">
                <path d="M666.089,1370.44L666.089,1353.25L707.495,1353.25L708.863,1365.55C711.988,1361 715.731,1357.48 720.093,1355.01C724.455,1352.53 729.533,1351.3 735.327,1351.3C748.413,1351.3 758.57,1356.41 765.796,1366.63C773.023,1376.85 776.636,1390.29 776.636,1406.96L776.636,1409.01C776.636,1424.63 773.023,1437.2 765.796,1446.7C758.57,1456.21 748.479,1460.96 735.523,1460.96C729.989,1460.96 725.074,1459.94 720.777,1457.89C716.48,1455.84 712.801,1452.83 709.742,1448.85L709.742,1479.42L723.511,1482.35L723.511,1499.54L667.554,1499.54L667.554,1482.35L681.324,1479.42L681.324,1373.37L666.089,1370.44ZM748.12,1406.96C748.12,1397 746.46,1388.92 743.14,1382.74C739.82,1376.56 734.742,1373.46 727.906,1373.46C723.609,1373.46 719.947,1374.34 716.919,1376.1C713.892,1377.86 711.499,1380.36 709.742,1383.62L709.742,1429.91C711.499,1432.9 713.892,1435.18 716.919,1436.74C719.947,1438.31 723.674,1439.09 728.101,1439.09C735.002,1439.09 740.064,1436.39 743.286,1430.98C746.509,1425.58 748.12,1418.26 748.12,1409.01L748.12,1406.96Z" style="fill-rule:nonzero;"/>
                <path d="M788.452,1441.82L802.222,1438.89L802.222,1373.37L786.988,1370.44L786.988,1353.25L830.738,1353.25L830.738,1438.89L844.409,1441.82L844.409,1458.91L788.452,1458.91L788.452,1441.82ZM830.738,1327.95L802.222,1327.95L802.222,1306.57L830.738,1306.57L830.738,1327.95Z" style="fill-rule:nonzero;"/>
                <path d="M852.222,1441.82L865.894,1438.89L865.894,1373.37L850.757,1370.44L850.757,1353.25L892.456,1353.25L893.726,1368.38C897.242,1362.98 901.571,1358.78 906.714,1355.79C911.857,1352.79 917.619,1351.3 923.999,1351.3C934.676,1351.3 943.01,1354.65 948.999,1361.35C954.989,1368.06 957.984,1378.57 957.984,1392.9L957.984,1438.89L971.656,1441.82L971.656,1458.91L917.163,1458.91L917.163,1441.82L929.37,1438.89L929.37,1392.99C929.37,1385.9 927.938,1380.87 925.074,1377.91C922.209,1374.94 917.88,1373.46 912.085,1373.46C908.309,1373.46 904.924,1374.23 901.929,1375.76C898.934,1377.29 896.428,1379.45 894.409,1382.25L894.409,1438.89L905.933,1441.82L905.933,1458.91L852.222,1458.91L852.222,1441.82Z" style="fill-rule:nonzero;"/>
                <path d="M1030.35,1460.96C1015.11,1460.96 1002.94,1456.08 993.824,1446.32C984.709,1436.55 980.152,1424.15 980.152,1409.11L980.152,1405.2C980.152,1389.51 984.465,1376.59 993.091,1366.43C1001.72,1356.28 1013.29,1351.23 1027.81,1351.3C1042.07,1351.3 1053.13,1355.59 1061.01,1364.19C1068.89,1372.78 1072.83,1384.4 1072.83,1399.05L1072.83,1414.58L1009.74,1414.58L1009.55,1415.16C1010.07,1422.13 1012.39,1427.86 1016.53,1432.35C1020.66,1436.84 1026.28,1439.09 1033.37,1439.09C1039.69,1439.09 1044.93,1438.45 1049.1,1437.18C1053.26,1435.91 1057.82,1433.91 1062.77,1431.18L1070.48,1448.76C1066.12,1452.21 1060.47,1455.1 1053.54,1457.45C1046.61,1459.79 1038.88,1460.96 1030.35,1460.96ZM1027.81,1373.27C1022.53,1373.27 1018.37,1375.29 1015.31,1379.32C1012.25,1383.36 1010.36,1388.66 1009.64,1395.24L1009.94,1395.73L1044.9,1395.73L1044.9,1393.19C1044.9,1387.13 1043.48,1382.3 1040.65,1378.69C1037.82,1375.07 1033.54,1373.27 1027.81,1373.27Z" style="fill-rule:nonzero;"/>
                <path d="M1128.39,1327.37L1128.39,1353.25L1146.95,1353.25L1146.95,1373.27L1128.39,1373.27L1128.39,1427.08C1128.39,1431.18 1129.24,1434.11 1130.93,1435.87C1132.63,1437.62 1134.9,1438.5 1137.77,1438.5C1139.72,1438.5 1141.43,1438.42 1142.9,1438.26C1144.36,1438.1 1146.01,1437.82 1147.83,1437.43L1150.27,1458.03C1147.08,1459.01 1143.92,1459.74 1140.8,1460.23C1137.67,1460.72 1134.29,1460.96 1130.64,1460.96C1120.81,1460.96 1113.24,1458.26 1107.93,1452.86C1102.63,1447.45 1099.98,1438.89 1099.98,1427.17L1099.98,1373.27L1084.45,1373.27L1084.45,1353.25L1099.98,1353.25L1099.98,1327.37L1128.39,1327.37Z" style="fill-rule:nonzero;"/>
                <path d="M1163.06,1441.82L1176.73,1438.89L1176.73,1373.37L1161.6,1370.44L1161.6,1353.25L1203.3,1353.25L1204.57,1368.68C1207.04,1363.21 1210.23,1358.94 1214.14,1355.88C1218.04,1352.83 1222.57,1351.3 1227.71,1351.3C1229.21,1351.3 1230.79,1351.41 1232.45,1351.64C1234.11,1351.87 1235.49,1352.14 1236.6,1352.47L1233.57,1378.44L1221.85,1378.15C1217.68,1378.15 1214.23,1378.96 1211.5,1380.59C1208.77,1382.22 1206.68,1384.53 1205.25,1387.53L1205.25,1438.89L1218.92,1441.82L1218.92,1458.91L1163.06,1458.91L1163.06,1441.82Z" style="fill-rule:nonzero;"/>
                <path d="M1293.82,1460.96C1278.59,1460.96 1266.41,1456.08 1257.3,1446.32C1248.19,1436.55 1243.63,1424.15 1243.63,1409.11L1243.63,1405.2C1243.63,1389.51 1247.94,1376.59 1256.57,1366.43C1265.19,1356.28 1276.77,1351.23 1291.28,1351.3C1305.54,1351.3 1316.61,1355.59 1324.49,1364.19C1332.37,1372.78 1336.3,1384.4 1336.3,1399.05L1336.3,1414.58L1273.22,1414.58L1273.02,1415.16C1273.54,1422.13 1275.87,1427.86 1280.01,1432.35C1284.14,1436.84 1289.76,1439.09 1296.85,1439.09C1303.17,1439.09 1308.41,1438.45 1312.57,1437.18C1316.74,1435.91 1321.3,1433.91 1326.25,1431.18L1333.96,1448.76C1329.6,1452.21 1323.95,1455.1 1317.02,1457.45C1310.08,1459.79 1302.35,1460.96 1293.82,1460.96ZM1291.28,1373.27C1286.01,1373.27 1281.84,1375.29 1278.78,1379.32C1275.73,1383.36 1273.84,1388.66 1273.12,1395.24L1273.41,1395.73L1308.37,1395.73L1308.37,1393.19C1308.37,1387.13 1306.96,1382.3 1304.13,1378.69C1301.29,1375.07 1297.01,1373.27 1291.28,1373.27Z" style="fill-rule:nonzero;"/>
                <path d="M1400.37,1460.96C1385.13,1460.96 1372.96,1456.08 1363.84,1446.32C1354.73,1436.55 1350.17,1424.15 1350.17,1409.11L1350.17,1405.2C1350.17,1389.51 1354.48,1376.59 1363.11,1366.43C1371.74,1356.28 1383.31,1351.23 1397.83,1351.3C1412.09,1351.3 1423.15,1355.59 1431.03,1364.19C1438.91,1372.78 1442.85,1384.4 1442.85,1399.05L1442.85,1414.58L1379.76,1414.58L1379.57,1415.16C1380.09,1422.13 1382.41,1427.86 1386.55,1432.35C1390.68,1436.84 1396.3,1439.09 1403.39,1439.09C1409.71,1439.09 1414.95,1438.45 1419.12,1437.18C1423.28,1435.91 1427.84,1433.91 1432.79,1431.18L1440.5,1448.76C1436.14,1452.21 1430.49,1455.1 1423.56,1457.45C1416.63,1459.79 1408.89,1460.96 1400.37,1460.96ZM1397.83,1373.27C1392.55,1373.27 1388.39,1375.29 1385.33,1379.32C1382.27,1383.36 1380.38,1388.66 1379.66,1395.24L1379.96,1395.73L1414.92,1395.73L1414.92,1393.19C1414.92,1387.13 1413.5,1382.3 1410.67,1378.69C1407.84,1375.07 1403.56,1373.27 1397.83,1373.27Z" style="fill-rule:nonzero;"/>
            </g>
            <g transform="matrix(0.768007,0,0,0.768007,-314.327,748.778)">
                <path d="M1235.69,1306.57L1216.65,1325.61L1121.41,1230.37L1026.16,1325.61L1007.12,1306.57L1121.41,1192.28C1159.5,1230.38 1197.6,1268.47 1235.69,1306.57Z" style="fill:rgb(10,134,0);fill-rule:nonzero;"/>
            </g>
            <g transform="matrix(0.562851,0,0,0.562851,-84.5755,951.162)">
                <path d="M1242.63,1306.57L1216.65,1332.55L1121.41,1237.31L1026.16,1332.55L1000.18,1306.57L1121.41,1185.34C1161.82,1225.75 1202.22,1266.16 1242.63,1306.57Z" style="fill:rgb(10,134,0);fill-rule:nonzero;"/>
            </g>
            <g transform="matrix(0.217768,0,0,0.217768,302.162,1323.65)">
                <path d="M1283.8,1306.57L1216.65,1373.72L1121.41,1278.47L1026.16,1373.72L959.014,1306.57L1121.41,1144.17C1175.54,1198.31 1229.67,1252.44 1283.8,1306.57Z" style="fill:rgb(10,134,0);fill-rule:nonzero;"/>
            </g>
            <g transform="matrix(0.948716,0,0,0.948716,-485.205,3.9935)">
                <circle cx="1134.87" cy="1735.48" r="18.459" style="fill:rgb(10,134,0);"/>
            </g>
            <g transform="matrix(0.948716,0,0,0.948716,-458.15,74.3931)">
                <circle cx="1134.87" cy="1735.48" r="18.459" style="fill:rgb(10,134,0);"/>
            </g>
            <g transform="matrix(0.948716,0,0,0.948716,-603.205,74.3931)">
                <circle cx="1134.87" cy="1735.48" r="18.459" style="fill:rgb(10,134,0);"/>
            </g>
            <g transform="matrix(0.948716,0,0,0.948716,-603.205,74.3931)">
                <path d="M1135.25,1706.12C1135.75,1706.13 1136.24,1706.15 1136.74,1706.18C1137.61,1706.23 1138.47,1706.33 1139.32,1706.46C1142.07,1706.88 1144.76,1707.69 1147.28,1708.87C1150.05,1710.17 1152.62,1711.9 1154.87,1713.99C1157.36,1716.31 1159.45,1719.07 1161.01,1722.11C1162.32,1724.68 1163.26,1727.45 1163.77,1730.29C1164.31,1733.35 1164.37,1736.5 1163.94,1739.57C1163.52,1742.56 1162.63,1745.49 1161.32,1748.21C1159.79,1751.39 1157.68,1754.29 1155.12,1756.73C1152.47,1759.25 1149.35,1761.28 1145.97,1762.66C1142.45,1764.1 1138.66,1764.84 1134.87,1764.84C1131.07,1764.84 1127.28,1764.1 1123.77,1762.66C1120.38,1761.28 1117.26,1759.25 1114.61,1756.73C1112.06,1754.29 1109.95,1751.39 1108.41,1748.21C1107.1,1745.49 1106.21,1742.56 1105.79,1739.57C1105.36,1736.49 1105.42,1733.35 1105.97,1730.29C1106.48,1727.45 1107.41,1724.68 1108.73,1722.11C1110.18,1719.28 1112.09,1716.69 1114.36,1714.47C1116.72,1712.17 1119.47,1710.27 1122.46,1708.87C1124.98,1707.69 1127.66,1706.88 1130.41,1706.46C1131.27,1706.33 1132.13,1706.23 1132.99,1706.18C1133.49,1706.15 1133.99,1706.13 1134.49,1706.12C1134.87,1706.12 1134.87,1706.12 1135.25,1706.12ZM1134.77,1727.92C1134.41,1727.92 1134.06,1727.95 1133.7,1728.01C1133.01,1728.11 1132.32,1728.32 1131.68,1728.62C1130.83,1729.02 1130.05,1729.58 1129.4,1730.27C1128.77,1730.93 1128.25,1731.7 1127.9,1732.54C1127.62,1733.2 1127.44,1733.89 1127.36,1734.6C1127.25,1735.56 1127.32,1736.53 1127.57,1737.46C1127.73,1738.05 1127.96,1738.62 1128.26,1739.15C1129.06,1740.59 1130.34,1741.75 1131.85,1742.41C1132.77,1742.82 1133.77,1743.02 1134.77,1743.04C1135.78,1743.05 1136.78,1742.87 1137.72,1742.48C1138.59,1742.13 1139.39,1741.6 1140.08,1740.95C1140.76,1740.3 1141.33,1739.52 1141.73,1738.66C1142.03,1738.02 1142.23,1737.34 1142.34,1736.64C1142.49,1735.66 1142.45,1734.64 1142.21,1733.68C1142.05,1733.02 1141.81,1732.39 1141.48,1731.81C1140.72,1730.45 1139.54,1729.34 1138.13,1728.66C1137.5,1728.35 1136.82,1728.14 1136.12,1728.02C1135.77,1727.96 1135.42,1727.93 1135.07,1727.92C1134.97,1727.92 1134.87,1727.92 1134.77,1727.92Z" style="fill:none;"/>
            </g>
            <g transform="matrix(0.948716,0,0,0.948716,-576.079,3.9935)">
                <circle cx="1134.87" cy="1735.48" r="18.459" style="fill:rgb(10,134,0);"/>
            </g>
        </g>
    </g>
</svg>
